<mxfile host="app.diagrams.net" modified="2023-08-18T14:56:54.839Z" agent="Mozilla/5.0 (Macintosh; Intel Mac OS X 10_15_7) AppleWebKit/605.1.15 (KHTML, like Gecko) Version/16.5.2 Safari/605.1.15" version="21.6.8" etag="O-VgWo2CD4VzrKZRwbRG" type="github">
  <diagram name="Page-1" id="i_1CqILYBpAEoAPZzJcO">
    <mxGraphModel>
      <root>
        <mxCell id="0" />
        <mxCell id="1" parent="0" />
      </root>
    </mxGraphModel>
  </diagram>
</mxfile>
